HIERARCHY
ROOT hips
{
  OFFSET 0 10.6860622 2.3727825e-15
  CHANNELS 6 Xposition Yposition Zposition Yrotation Xrotation Zrotation
  JOINT leftUpperLeg
  {
    OFFSET 0.6642549969 -0.9402397400000004 0
    CHANNELS 3 Yrotation Xrotation Zrotation
    JOINT leftLowerLeg
    {
      OFFSET 0 -3.997221335632195 0
      CHANNELS 3 Yrotation Xrotation Zrotation
      JOINT leftFoot
      {
        OFFSET -0.13777839790000004 -4.6145792000000005 -0.22186036399999998
        CHANNELS 3 Yrotation Xrotation Zrotation
        JOINT leftToes
        {
          OFFSET -0.03777410834999995 -0.9130806927000008 0.85230013
          CHANNELS 3 Yrotation Xrotation Zrotation
          End Site
          {
            OFFSET -0.03777410834999995 -0.9130806927000008 0.85230013
          }
        }
      }
    }
  }
  JOINT rightUpperLeg
  {
    OFFSET -0.6642778626 -0.9402397400000004 0
    CHANNELS 3 Yrotation Xrotation Zrotation
    JOINT rightLowerLeg
    {
      OFFSET 0 -3.997221452859387 0
      CHANNELS 3 Yrotation Xrotation Zrotation
      JOINT rightFoot
      {
        OFFSET 0.1377926176 -4.6145792000000005 -0.22185782299999995
        CHANNELS 3 Yrotation Xrotation Zrotation
        JOINT rightToes
        {
          OFFSET 0.037780746850000047 -0.9130806927000008 0.85230167
          CHANNELS 3 Yrotation Xrotation Zrotation
          End Site
          {
            OFFSET 0.037780746850000047 -0.9130806927000008 0.85230167
          }
        }
      }
    }
  }
  JOINT spine
  {
    OFFSET 0 0.13988381660000015 0
    CHANNELS 3 Yrotation Xrotation Zrotation
    JOINT chest
    {
      OFFSET 0 0.6191039003973773 0
      CHANNELS 3 Yrotation Xrotation Zrotation
      JOINT upperChest
      {
        OFFSET 0 0.9855186130586943 0
        CHANNELS 3 Yrotation Xrotation Zrotation
        JOINT leftShoulder
        {
          OFFSET 0.1807663869 1.5087829790000005 0
          CHANNELS 3 Yrotation Xrotation Zrotation
          JOINT leftUpperArm
          {
            OFFSET 0.5985063006419806 0 0
            CHANNELS 3 Yrotation Xrotation Zrotation
            JOINT leftLowerArm
            {
              OFFSET 2.2993332369501065 0 0
              CHANNELS 3 Yrotation Xrotation Zrotation
              JOINT leftHand
              {
                OFFSET 2.395047042602395 0 0
                CHANNELS 3 Yrotation Xrotation Zrotation
                JOINT leftIndexProximal
                {
                  OFFSET 0.5766295810000004 0.04556643899499946 0.17265095988184
                  CHANNELS 3 Yrotation Xrotation Zrotation
                  JOINT leftIndexIntermediate
                  {
                    OFFSET 0.2957229000000008 -0.019352197700001517 -0.007932640616999987
                    CHANNELS 3 Yrotation Xrotation Zrotation
                    JOINT leftIndexDistal
                    {
                      OFFSET 0.19008243099999922 -0.012484908149998475 -0.002786250786000012
                      CHANNELS 3 Yrotation Xrotation Zrotation
                      End Site
                      {
                        OFFSET 0.19008243099999922 -0.012484908149998475 -0.002786250786000012
                      }
                    }
                  }
                }
                JOINT leftMiddleProximal
                {
                  OFFSET 0.5834975091000001 0.0524350405149987 0.02204081888183999
                  CHANNELS 3 Yrotation Xrotation Zrotation
                  JOINT leftMiddleIntermediate
                  {
                    OFFSET 0.33880573540000003 -0.019871473270000717 -0.00000971183179999946
                    CHANNELS 3 Yrotation Xrotation Zrotation
                    JOINT leftMiddleDistal
                    {
                      OFFSET 0.20676022730000088 -0.012221336379999448 0.0001471936708000235
                      CHANNELS 3 Yrotation Xrotation Zrotation
                      End Site
                      {
                        OFFSET 0.20676022730000088 -0.012221336379999448 0.0001471936708000235
                      }
                    }
                  }
                }
                JOINT leftLittleProximal
                {
                  OFFSET 0.5344154683999995 -0.012880921405001189 -0.24414037221816004
                  CHANNELS 3 Yrotation Xrotation Zrotation
                  JOINT leftLittleIntermediate
                  {
                    OFFSET 0.21758961730000093 -0.011650919939999227 0.011893592810000034
                    CHANNELS 3 Yrotation Xrotation Zrotation
                    JOINT leftLittleDistal
                    {
                      OFFSET 0.1475273964999999 -0.008152365682999818 0.006001092492999946
                      CHANNELS 3 Yrotation Xrotation Zrotation
                      End Site
                      {
                        OFFSET 0.1475273964999999 -0.008152365682999818 0.006001092492999946
                      }
                    }
                  }
                }
                JOINT leftRingProximal
                {
                  OFFSET 0.5799399463000003 0.026911854694997794 -0.12150566991816003
                  CHANNELS 3 Yrotation Xrotation Zrotation
                  JOINT leftRingIntermediate
                  {
                    OFFSET 0.26167887460000006 -0.013480186499999602 0.010996293000000053
                    CHANNELS 3 Yrotation Xrotation Zrotation
                    JOINT leftRingDistal
                    {
                      OFFSET 0.17667108799999987 -0.008990287899999228 0.0055541023999999065
                      CHANNELS 3 Yrotation Xrotation Zrotation
                      End Site
                      {
                        OFFSET 0.17667108799999987 -0.008990287899999228 0.0055541023999999065
                      }
                    }
                  }
                }
                JOINT leftThumbProximal
                {
                  OFFSET 0.11018806699999972 -0.09448718900500053 0.17047963138184
                  CHANNELS 3 Yrotation Xrotation Zrotation
                  JOINT leftThumbIntermediate
                  {
                    OFFSET 0.31062601459999983 -0.08126270900000132 0.15443142000000007
                    CHANNELS 3 Yrotation Xrotation Zrotation
                    JOINT leftThumbDistal
                    {
                      OFFSET 0.21627175790000086 -0.08833193599999878 0.018771167799999988
                      CHANNELS 3 Yrotation Xrotation Zrotation
                      End Site
                      {
                        OFFSET 0.21627175790000086 -0.08833193599999878 0.018771167799999988
                      }
                    }
                  }
                }
              }
            }
          }
        }
        JOINT neck
        {
          OFFSET 0 1.5463305265074576 0
          CHANNELS 3 Yrotation Xrotation Zrotation
          JOINT head
          {
            OFFSET 0 0.8456443600000344 0
            CHANNELS 3 Yrotation Xrotation Zrotation
            JOINT leftEye
            {
              OFFSET 0.30408573140000006 0.5104519199999995 0.1276382305
              CHANNELS 3 Yrotation Xrotation Zrotation
              End Site
              {
                OFFSET 0.30408573140000006 0.5104519199999995 0.1276382305
              }
            }
            JOINT rightEye
            {
              OFFSET -0.30409491089999996 0.5104519199999995 0.1276379445
              CHANNELS 3 Yrotation Xrotation Zrotation
              End Site
              {
                OFFSET -0.30409491089999996 0.5104519199999995 0.1276379445
              }
            }
            JOINT jaw
            {
              OFFSET -3.155239131000001e-7 -0.11984121820000082 0.60178107
              CHANNELS 3 Yrotation Xrotation Zrotation
              End Site
              {
                OFFSET -3.155239131000001e-7 -0.11984121820000082 0.60178107
              }
            }
          }
        }
        JOINT rightShoulder
        {
          OFFSET -0.1807303465 1.5087829790000005 0
          CHANNELS 3 Yrotation Xrotation Zrotation
          JOINT rightUpperArm
          {
            OFFSET -0.5985063796536958 0 0
            CHANNELS 3 Yrotation Xrotation Zrotation
            JOINT rightLowerArm
            {
              OFFSET -2.2993322059002854 0 0
              CHANNELS 3 Yrotation Xrotation Zrotation
              JOINT rightHand
              {
                OFFSET -2.395045314457259 0 0
                CHANNELS 3 Yrotation Xrotation Zrotation
                JOINT rightIndexProximal
                {
                  OFFSET -0.5764487688300002 0.0441371204405987 0.17361932004999997
                  CHANNELS 3 Yrotation Xrotation Zrotation
                  JOINT rightIndexIntermediate
                  {
                    OFFSET -0.29573011380000047 -0.01934826376999843 -0.007698921482999974
                    CHANNELS 3 Yrotation Xrotation Zrotation
                    JOINT rightIndexDistal
                    {
                      OFFSET -0.19008373999999884 -0.012503266380000655 -0.0026365778999999897
                      CHANNELS 3 Yrotation Xrotation Zrotation
                      End Site
                      {
                        OFFSET -0.19008373999999884 -0.012503266380000655 -0.0026365778999999897
                      }
                    }
                  }
                }
                JOINT rightMiddleProximal
                {
                  OFFSET -0.5834852037300005 0.05211639405060153 0.02307162440000001
                  CHANNELS 3 Yrotation Xrotation Zrotation
                  JOINT rightMiddleIntermediate
                  {
                    OFFSET -0.33880114510000003 -0.019952774050000954 0.0002455003561999819
                    CHANNELS 3 Yrotation Xrotation Zrotation
                    JOINT rightMiddleDistal
                    {
                      OFFSET -0.20675694929999955 -0.012273788999999091 0.00030209124000002766
                      CHANNELS 3 Yrotation Xrotation Zrotation
                      End Site
                      {
                        OFFSET -0.20675694929999955 -0.012273788999999091 0.00030209124000002766
                      }
                    }
                  }
                }
                JOINT rightLittleProximal
                {
                  OFFSET -0.5346811737299992 -0.011214256288399227 -0.24363941305000003
                  CHANNELS 3 Yrotation Xrotation Zrotation
                  JOINT rightLittleIntermediate
                  {
                    OFFSET -0.21757715980000092 -0.011771559690000988 0.01201554387
                    CHANNELS 3 Yrotation Xrotation Zrotation
                    JOINT rightLittleDistal
                    {
                      OFFSET -0.1475201849000004 -0.00822055339600003 0.006082065407000015
                      CHANNELS 3 Yrotation Xrotation Zrotation
                      End Site
                      {
                        OFFSET -0.1475201849000004 -0.00822055339600003 0.006082065407000015
                      }
                    }
                  }
                }
                JOINT rightRingProximal
                {
                  OFFSET -0.5800810755299999 0.027657985680600072 -0.12066365025000003
                  CHANNELS 3 Yrotation Xrotation Zrotation
                  JOINT rightRingIntermediate
                  {
                    OFFSET -0.26166445029999974 -0.013623118409999302 0.011164098990000045
                    CHANNELS 3 Yrotation Xrotation Zrotation
                    JOINT rightRingDistal
                    {
                      OFFSET -0.17666387530000027 -0.009072900100000503 0.005668185599999959
                      CHANNELS 3 Yrotation Xrotation Zrotation
                      End Site
                      {
                        OFFSET -0.17666387530000027 -0.009072900100000503 0.005668185599999959
                      }
                    }
                  }
                }
                JOINT rightThumbProximal
                {
                  OFFSET -0.10997596379000074 -0.09577489355940072 0.16989765924999997
                  CHANNELS 3 Yrotation Xrotation Zrotation
                  JOINT rightThumbIntermediate
                  {
                    OFFSET -0.31036620999999986 -0.08229339117999834 0.15440884469999996
                    CHANNELS 3 Yrotation Xrotation Zrotation
                    JOINT rightThumbDistal
                    {
                      OFFSET -0.21631306399999906 -0.08825326400000111 0.018656797720000014
                      CHANNELS 3 Yrotation Xrotation Zrotation
                      End Site
                      {
                        OFFSET -0.21631306399999906 -0.08825326400000111 0.018656797720000014
                      }
                    }
                  }
                }
              }
            }
          }
        }
      }
    }
  }
}
MOTION
Frames: 8
Frame Time: 0.03333333333333333
0 11.682712981546562 0 0 0 0 0 0 -5.826343164929014 -0.3712483961610101 -3.6333298826370974 5.838118207697276 0 0 0 0 0 0 0 0 5.826343164929014 0.3712483961610101 -3.6333298826370974 -5.838118207697276 0 0 0 0 0 0 0 -4.610651315171937 0 0 3.0831277533083026 0 0 0 0 0 1.5275236235667615 0 0 0 0 0 0 0 0 0 0 0 0 0 0 0 0 0 0 0 0 0 0 0 0 0 0 0 0 0 0 0 0 0 0 0 0 0 0 0 0 0 0 0 0 0 0 0 0 0 0 0 0 0 0 0 0 1.5275236235667615 0 0 0 0 0 0 0 0 0 0 0 0 0 0 1.5275236235667615 0 0 0 0 0 0 0 0 0 0 0 0 0 0 0 0 0 0 0 0 0 0 0 0 0 0 0 0 0 0 0 0 0 0 0 0 0 0 0 0 0 0 0 0 0 0 0 0 0 0 0 0 0 0 0
-0.6022175047874898 -5.7375882553104836 1.1036639106058572 60.289421621148094 10.00430792865834 -88.25853909790733 -10.701729980334372 -5.685406981437894 -4.602362479165455 156.61344370106605 75.8329617874566 156.57444425567527 -0.46883964997125055 32.079547927367095 -0.9662679028015645 0 0 0 -13.170050722687318 -4.271267288608017 16.38827727220318 -148.35136063321661 78.91634955889853 -147.3771106959114 0.5332912404053207 12.703763300090444 0.25465244976677626 0 0 0 -2.699102657211804 54.285964092720555 17.746727036228414 0.016899384871930233 17.577512254579336 -17.00457332542374 0 0 0 -2.0004429995080093 1.5214935270203818 -4.053593390803413 -175.0839771579627 -78.96197286973482 84.60021479632009 -122.0268253668702 -5.0022018233738095 0.0021983729559493016 -3.894570446421611 -3.1392865961003333 -1.998872157767319 0 0 0 0 0 0 0 0 0 0 0 0 0 0 0 0 0 0 0 0 0 0 0 0 0 0 0 0 0 0 0 0 0 0 0 0 0 0 0 0 0 0 0 0 0 -0.0018070209855441926 4.527051798762715 -23.003478233234116 -3.9288010777484828 6.883249790577888 12.558913159730327 0 0 0 0 0 0 0 0 0 0 1.5275236235667615 0 27.426786877730155 12.616741432233823 51.00886956662598 95.0484747824716 -26.007907630954403 -0.041265845567290335 11.137296150656578 -11.663143320987485 35.27226125745147 0 0 0 0 0 0 0 0 0 0 0 0 0 0 0 0 0 0 0 0 0 0 0 0 0 0 0 0 0 0 0 0 0 0 0 0 0 0 0 0 0 0 0 0 0
-0.6022175047874898 -5.7375882553104836 1.1036639106058572 60.289421621148094 10.00430792865834 -88.25853909790733 -10.701729980334372 -5.685407839432157 -4.602362479165455 156.61344370106605 75.8329617874566 156.57444425567527 -0.46883964997125055 32.079547927367095 -0.9662679028015645 0 0 0 -13.170050722687318 -4.271267288608017 16.38827727220318 -148.35136063321661 78.91634955889853 -147.3771106959114 0.5332912404053207 12.703763300090444 0.25465244976677626 0 0 0 -2.699102657211804 54.285964092720555 17.746727036228414 0.016899442595460612 17.577512254579336 -17.00457503829465 0 0 0 -2.0004429995080093 1.5214935270203818 -4.053593390803413 -175.0839771579627 -78.96197286973482 84.60021479632009 -122.0268253668702 -5.0022018233738095 0.0021983729559493016 -3.894570446421611 -3.1392865961003333 -1.998872157767319 0 0 0 0 0 0 0 0 0 0 0 0 0 0 0 0 0 0 0 0 0 0 0 0 0 0 0 0 0 0 0 0 0 0 0 0 0 0 0 0 0 0 0 0 0 -0.0018070209855441926 4.527051798762715 -23.00347980991814 -3.9288010777484828 6.883249790577888 12.558913999125677 0 0 0 0 0 0 0 0 0 0 1.5275236235667615 0 27.42679159594254 12.616738807534224 51.0088717685742 95.04847430932718 -26.007907630954403 -0.04126473231661536 11.137297006011707 -11.663144192760583 35.27226125745147 0 0 0 0 0 0 0 0 0 0 0 0 0 0 0 0 0 0 0 0 0 0 0 0 0 0 0 0 0 0 0 0 0 0 0 0 0 0 0 0 0 0 0 0 0
-0.6022175047874898 -5.7375882553104836 1.1036639106058572 60.2894168904847 10.004301859966558 -88.25853920329291 -10.701729980334372 -5.685406981437894 -4.602362479165455 156.61344370106605 75.8329617874566 156.57444425567527 -0.4688396169908115 32.07954389686085 -0.9662679028015645 0 0 0 -13.170050722687318 -4.271267288608017 16.38827727220318 -148.35136063321661 78.91634955889853 -147.3771106959114 0.5332912404053207 12.703763300090444 0.25465244976677626 0 0 0 -2.699102657211804 54.285964092720555 17.746727036228414 0.016899327148399857 17.57751046340061 -17.00457161255279 0 0 0 -2.0004429995080093 1.5214935270203818 -4.053593390803413 -175.0839771579627 -78.96197286973482 84.60021479632009 -122.0268101053163 -5.0022018233738095 0.0021983729559493016 -3.894570446421611 -3.1392865961003333 -1.998872157767319 0 0 0 0 0 0 0 0 0 0 0 0 0 0 0 0 0 0 0 0 0 0 0 0 0 0 0 0 0 0 0 0 0 0 0 0 0 0 0 0 0 0 0 0 0 -0.0018079443409641806 4.527051370539913 -23.003478233234116 -3.9288010777484828 6.883249790577888 12.558913159730327 0 0 0 0 0 0 0 0 0 0 1.5275236235667615 0 27.426782218362547 12.616744056933447 51.00886464463704 95.04847525561603 -26.007905731006076 -0.041266958817965285 11.137296150656578 -11.663143320987485 35.27226125745147 0 0 0 0 0 0 0 0 0 0 0 0 0 0 0 0 0 0 0 0 0 0 0 0 0 0 0 0 0 0 0 0 0 0 0 0 0 0 0 0 0 0 0 0 0
-0.6022175047874898 -5.7375882553104836 1.1036639106058572 60.289421621148094 10.00430792865834 -88.25853909790733 -10.701729980334372 -5.685406981437894 -4.602362479165455 156.61344370106605 75.8329617874566 156.57444425567527 -0.46883964997125055 32.07955195787353 -0.9662679707710459 0 0 0 -13.170050722687318 -4.271267288608017 16.38827727220318 -148.35136063321661 78.91634955889853 -147.3771106959114 0.5332912404053207 12.703763300090444 0.25465244976677626 0 0 0 -2.699102657211804 54.285964092720555 17.746727036228414 0.016899384871930233 17.577512254579336 -17.00457332542374 0 0 0 -2.0004429995080093 1.5214935270203818 -4.053593390803413 -175.0839771579627 -78.96197286973482 84.60021479632009 -122.0268253668702 -5.0022018233738095 0.0021983729559493016 -3.894570446421611 -3.1392865961003333 -1.998872157767319 0 0 0 0 0 0 0 0 0 0 0 0 0 0 0 0 0 0 0 0 0 0 0 0 0 0 0 0 0 0 0 0 0 0 0 0 0 0 0 0 0 0 0 0 0 -0.0018070209855441926 4.527051798762715 -23.003478233234116 -3.9288010777484828 6.883249790577888 12.558913159730327 0 0 0 0 0 0 0 0 0 0 1.5275236235667615 0 27.426786877730155 12.616741432233823 51.00886956662598 95.0484747824716 -26.007907630954403 -0.041265845567290335 11.137296150656578 -11.663143320987485 35.27226125745147 0 0 0 0 0 0 0 0 0 0 0 0 0 0 0 0 0 0 0 0 0 0 0 0 0 0 0 0 0 0 0 0 0 0 0 0 0 0 0 0 0 0 0 0 0
-0.6022175047874898 -5.7375882553104836 1.1036639106058572 60.289421621148094 10.00430792865834 -88.25853909790733 -10.701729980334372 -5.685407839432157 -4.602362479165455 156.61345477819333 75.83294783404257 156.5744553502347 -0.46883964997125055 32.07955195787353 -0.9662679707710459 0 0 0 -13.170053170222511 -4.271266860532261 16.38827891493825 -148.35138349629003 78.91634955889853 -147.3771322441668 0.5332912729891465 12.703764175288859 0.2546524771164562 0 0 0 -2.699103208209037 54.2859757934582 17.74672781674482 0.016899384871930233 17.577512254579336 -17.00457332542374 0 0 0 -2.0004429995080093 1.5214935270203818 -4.053593390803413 -175.08384371811675 -78.96200854394215 84.60007438131991 -122.02683299764686 -5.0022018233738095 0.0021983729559493016 -3.894570446421611 -3.1392865961003333 -1.998872157767319 0 0 0 0 0 0 0 0 0 0 0 0 0 0 0 0 0 0 0 0 0 0 0 0 0 0 0 0 0 0 0 0 0 0 0 0 0 0 0 0 0 0 0 0 0 -0.0018070209855441926 4.527051798762715 -23.003478233234116 -3.9288010777484828 6.883249790577888 12.558913159730327 0 0 0 0 0 0 0 0 0 0 1.5275236235667615 0 27.426788430852607 12.616740557333953 51.00887941060359 95.04847525561603 -26.007907630954403 -0.041266958817965285 11.137296150656578 -11.663143320987485 35.27226125745147 0 0 0 0 0 0 0 0 0 0 0 0 0 0 0 0 0 0 0 0 0 0 0 0 0 0 0 0 0 0 0 0 0 0 0 0 0 0 0 0 0 0 0 0 0
-0.6022175047874898 -5.7375882553104836 1.1036639106058572 60.289418396456576 10.004312263438255 -88.25853292369891 -10.701729980334372 -5.685406981437894 -4.602362479165455 156.61344370106605 75.8329617874566 156.57444425567527 -0.46883964997125055 32.079547927367095 -0.9662679028015645 0 0 0 -13.170050722687318 -4.271266432456504 16.38827727220318 -148.35136063321661 78.91634955889853 -147.3771106959114 0.5332912404053207 12.703763300090444 0.25465244976677626 0 0 0 -2.6991043008024733 54.285964092720555 17.746725643236392 0.016899384871930233 17.577512254579336 -17.00457332542374 0 0 0 -2.0004429995080093 1.5214935270203818 -4.053593390803413 -175.084105940059 -78.96195503267387 84.60034446282698 -122.0268253668702 -5.0022018233738095 0.0021983729559493016 -3.894570446421611 -3.1392865961003333 -1.998872157767319 0 0 0 0 0 0 0 0 0 0 0 0 0 0 0 0 0 0 0 0 0 0 0 0 0 0 0 0 0 0 0 0 0 0 0 0 0 0 0 0 0 0 0 0 0 -0.0018070209855441926 4.527050942317112 -23.003478233234116 -3.9288010777484828 6.883249790577888 12.558913159730327 0 0 0 0 0 0 0 0 0 0 1.5275236235667615 0 27.426786877730155 12.616741432233823 51.00886956662598 95.04847525561603 -26.007905731006076 -0.041266958817965285 11.137297006011707 -11.663142449214389 35.27225639686424 0 0 0 0 0 0 0 0 0 0 0 0 0 0 0 0 0 0 0 0 0 0 0 0 0 0 0 0 0 0 0 0 0 0 0 0 0 0 0 0 0 0 0 0 0
-0.6022175047874898 -5.7375882553104836 1.1036639106058572 60.289421621148094 10.00430792865834 -88.25853909790733 -10.701729980334372 -5.685406981437894 -4.602362479165455 156.61344370106605 75.8329617874566 156.57444425567527 -0.46883964997125055 32.079547927367095 -0.9662679028015645 0 0 0 -13.170050722687318 -4.271267288608017 16.38827727220318 -148.35136063321661 78.91634955889853 -147.3771106959114 0.5332912404053207 12.703763300090444 0.25465244976677626 0 0 0 -2.699102657211804 54.285964092720555 17.746727036228414 0.016899384871930233 17.577512254579336 -17.00457332542374 0 0 0 -2.0004429995080093 1.5214935270203818 -4.053594242741606 -175.0839771579627 -78.96197286973482 84.60021479632009 -122.0268253668702 -5.0022018233738095 0.0021983729559493016 -3.894570446421611 -3.1392865961003333 -1.998872157767319 0 0 0 0 0 0 0 0 0 0 0 0 0 0 0 0 0 0 0 0 0 0 0 0 0 0 0 0 0 0 0 0 0 0 0 0 0 0 0 0 0 0 0 0 0 -0.0018070209855441926 4.527051798762715 -23.003478233234116 -3.9288010777484828 6.883249790577888 12.558913159730327 0 0 0 0 0 0 0 0 0 0 1.5275236235667615 0 27.426786877730155 12.616741432233823 51.00886956662598 95.0484747824716 -26.007907630954403 -0.041265845567290335 11.137296150656578 -11.663143320987485 35.27226125745147 0 0 0 0 0 0 0 0 0 0 0 0 0 0 0 0 0 0 0 0 0 0 0 0 0 0 0 0 0 0 0 0 0 0 0 0 0 0 0 0 0 0 0 0 0
